<mxfile host="65bd71144e">
    <diagram id="9vyAgc-UJJLBQmNOc06z" name="Page-1">
        <mxGraphModel dx="2553" dy="1110" grid="1" gridSize="10" guides="1" tooltips="1" connect="1" arrows="1" fold="1" page="1" pageScale="1" pageWidth="850" pageHeight="1100" math="0" shadow="0">
            <root>
                <mxCell id="0"/>
                <mxCell id="1" parent="0"/>
                <mxCell id="4" value="" style="verticalLabelPosition=bottom;verticalAlign=top;html=1;shape=mxgraph.basic.rect;fillColor2=none;strokeWidth=1;size=20;indent=5;fillColor=#eeeeee;strokeColor=#36393d;" parent="1" vertex="1">
                    <mxGeometry x="90" y="80" width="680" height="830" as="geometry"/>
                </mxCell>
                <mxCell id="5" value="&lt;p style=&quot;line-height: 1.2&quot;&gt;&lt;font style=&quot;font-size: 24px&quot;&gt;&amp;nbsp; Temperature Calculator Website.&lt;/font&gt;&lt;/p&gt;" style="shape=partialRectangle;whiteSpace=wrap;html=1;top=0;left=0;fillColor=#6a00ff;align=left;fontColor=#ffffff;strokeColor=#3700CC;" vertex="1" parent="1">
                    <mxGeometry x="90" y="80" width="680" height="60" as="geometry"/>
                </mxCell>
                <mxCell id="10" value="&lt;h2 style=&quot;padding: 0px ; font-family: &amp;#34;roboto&amp;#34; , &amp;#34;helvetica&amp;#34; , &amp;#34;arial&amp;#34; , sans-serif ; font-weight: 400 ; font-size: 28px ; line-height: 48px ; margin: 24px 0px 24px 30px ; font-style: normal ; letter-spacing: normal ; text-indent: 0px ; text-transform: none ; word-spacing: 0px&quot;&gt;&lt;font color=&quot;#000000&quot;&gt;(°F − 32) × 5/9 = °C&lt;/font&gt;&lt;/h2&gt;" style="text;whiteSpace=wrap;html=1;fontSize=25;" vertex="1" parent="1">
                    <mxGeometry x="125" y="220" width="300" height="110" as="geometry"/>
                </mxCell>
                <mxCell id="11" value="&lt;h1 style=&quot;padding: 0px ; font-size: 35px ; line-height: 1.35 ; letter-spacing: -0.02em ; margin: 24px 0px 24px 40px ; font-family: &amp;#34;roboto&amp;#34; , &amp;#34;helvetica&amp;#34; , &amp;#34;arial&amp;#34; , sans-serif ; font-weight: 400 ; font-style: normal ; text-indent: 0px ; text-transform: none ; word-spacing: 0px&quot;&gt;&lt;font color=&quot;#000000&quot;&gt;The formula is:&lt;/font&gt;&lt;/h1&gt;" style="text;whiteSpace=wrap;html=1;fontSize=25;" vertex="1" parent="1">
                    <mxGeometry x="120" y="140" width="290" height="110" as="geometry"/>
                </mxCell>
                <mxCell id="13" value="&lt;span style=&quot;font-family: &amp;#34;helvetica&amp;#34; , &amp;#34;arial&amp;#34; , sans-serif ; font-size: 14px ; font-style: normal ; font-weight: 400 ; letter-spacing: normal ; text-indent: 0px ; text-transform: none ; word-spacing: 0px ; display: inline ; float: none&quot;&gt;&lt;font color=&quot;#000000&quot;&gt;Fahrenheit:&lt;/font&gt;&lt;/span&gt;" style="text;whiteSpace=wrap;html=1;fontSize=24;" vertex="1" parent="1">
                    <mxGeometry x="125" y="340" width="100" height="50" as="geometry"/>
                </mxCell>
                <mxCell id="14" value="&lt;form action=&quot;https://ics2o-unit3-04-html.evgeny-vovk.repl.co/&quot; style=&quot;text-indent: 0px&quot;&gt;&lt;div class=&quot;mdl-textfield mdl-js-textfield is-upgraded&quot; style=&quot;position: relative ; display: inline-block ; box-sizing: border-box ; width: 300px ; max-width: 100% ; margin: 0px ; padding: 20px 0px&quot;&gt;&lt;font color=&quot;#000000&quot;&gt;&lt;br&gt;&lt;br&gt;&lt;input class=&quot;mdl-textfield__input&quot; type=&quot;text&quot; pattern=&quot;-?[0-9]*(\.[0-9]+)?&quot; id=&quot;fahrenheit&quot; style=&quot;font-family: &amp;#34;helvetica&amp;#34; , &amp;#34;arial&amp;#34; , sans-serif ; font-size: 16px ; font-style: normal ; font-weight: 400 ; letter-spacing: normal ; text-transform: none ; word-spacing: 0px ; border-top: none ; border-right: none ; border-left: none ; border-bottom: 1px solid rgba(0 , 0 , 0 , 0.12) ; display: block ; margin: 0px ; padding: 4px 0px ; width: 300px ; background: 0px 0px ; text-align: left&quot;&gt;&lt;label class=&quot;mdl-textfield__label&quot; style=&quot;font-family: &amp;#34;helvetica&amp;#34; , &amp;#34;arial&amp;#34; , sans-serif ; font-size: 16px ; font-style: normal ; font-weight: 400 ; letter-spacing: normal ; text-transform: none ; word-spacing: 0px ; position: absolute ; display: block ; width: 300px ; overflow: hidden ; text-align: left&quot;&gt;&lt;br&gt;&lt;/label&gt;&lt;span class=&quot;mdl-textfield__error&quot; style=&quot;font-family: &amp;#34;helvetica&amp;#34; , &amp;#34;arial&amp;#34; , sans-serif ; font-size: 12px ; font-style: normal ; font-weight: 400 ; letter-spacing: normal ; text-transform: none ; word-spacing: 0px ; position: absolute ; margin-top: 3px ; visibility: hidden ; display: block&quot;&gt;&lt;/span&gt;&lt;/font&gt;&lt;/div&gt;&lt;/form&gt;&lt;font color=&quot;#000000&quot;&gt;&lt;button class=&quot;mdl-button mdl-js-button mdl-button--raised mdl-js-ripple-effect mdl-button--accent&quot; style=&quot;background: rgb(64 , 196 , 255) ; border: none ; border-radius: 2px ; position: relative ; height: 36px ; margin: 0px ; min-width: 64px ; padding: 0px 16px ; display: inline-block ; font-family: &amp;#34;roboto&amp;#34; , &amp;#34;helvetica&amp;#34; , &amp;#34;arial&amp;#34; , sans-serif ; font-size: 14px ; font-weight: 500 ; text-transform: uppercase ; letter-spacing: 0px ; overflow: hidden ; transition: all 0.2s cubic-bezier(0.4 , 0 , 1 , 1) 0s , all 0.2s cubic-bezier(0.4 , 0 , 0.2 , 1) 0s , all 0.2s cubic-bezier(0.4 , 0 , 0.2 , 1) 0s ; outline: none ; cursor: pointer ; text-decoration: none ; text-align: center ; line-height: 36px ; vertical-align: middle ; box-shadow: rgba(0 , 0 , 0 , 0.14) 0px 2px 2px 0px , rgba(0 , 0 , 0 , 0.2) 0px 3px 1px -2px , rgba(0 , 0 , 0 , 0.12) 0px 1px 5px 0px&quot;&gt;CALCULATE&lt;span class=&quot;mdl-button__ripple-container&quot; style=&quot;display: block ; height: 36px ; left: 0px ; position: absolute ; top: 0px ; width: 113.438px ; z-index: 0 ; overflow: hidden&quot;&gt;&lt;span class=&quot;mdl-ripple&quot; style=&quot;background: rgb(66 , 66 , 66) ; border-radius: 50% ; height: 50px ; left: 0px ; opacity: 0 ; position: absolute ; top: 0px ; transform: translate(-50% , -50%) ; width: 50px ; overflow: hidden&quot;&gt;&lt;/span&gt;&lt;/span&gt;&lt;/button&gt;&lt;span style=&quot;font-family: &amp;#34;helvetica&amp;#34; , &amp;#34;arial&amp;#34; , sans-serif ; font-size: 14px ; font-style: normal ; font-weight: 400 ; letter-spacing: normal ; text-indent: 0px ; text-transform: none ; word-spacing: 0px ; display: inline ; float: none&quot;&gt;&lt;/span&gt;&lt;/font&gt;" style="text;whiteSpace=wrap;html=1;fontSize=24;" vertex="1" parent="1">
                    <mxGeometry x="120" y="280" width="330" height="150" as="geometry"/>
                </mxCell>
            </root>
        </mxGraphModel>
    </diagram>
</mxfile>